<?xml version="1.0" encoding="UTF-8"?>
<!-- Created with Inkscape (http://www.inkscape.org/) -->
<svg width="512" height="512" version="1.1" viewBox="0 0 512 512" xmlns="http://www.w3.org/2000/svg">
 <path d="m240 55c-9.59 2.06-15.9 11.9-24.7 13.9-4.11 0.923-9.12-1.4-13.3-1.62-11.5-0.611-22.8 1.8-32.3 8.57-9.75 6.95-11.6 18.4-19.6 25.6-4.16 3.73-10.8 5.11-15.5 8.18-11.5 7.46-19.8 19.5-23.3 32.7-3.39 13.1 1.37 23.5 1.87 36.1 0.18 4.47-2.79 9.02-3.89 13.3-1.89 7.38-2.13 16.3-0.658 23.8 7.22 36.8 45.3 45.2 75.4 32.3 5.01 11 14.9 19.7 26.6 22.8 6.62 1.78 15.4 0.304 20.6 5.25 16 15.1 13.7 45.5 28.6 61.9 8.85 9.76 44.9 18 51.3 2.24 4.15-10.3-5.11-25.9-7.33-36.1 8.8 0.135 14.1 6.21 21.9 9.66 10.4 4.66 22.6 4.72 33.3 0.691 10.8-4.1 19.3-12.2 24-22.7 1.95-4.35 2.04-10 4.65-14 5.22-7.91 16.7-12.2 22.8-20.3 9.81-13.1 14.1-30.4 11.7-46.6-0.94-6.33-5.47-13.5-5.43-19.7 0.0296-5.01 6.3-10.9 8.3-15.5 4.66-10.8 5.84-23.7 2.91-35.2-3.29-12.9-11.3-24.3-22.4-31.6-4.78-3.11-11.5-4.21-15.7-7.99-4.18-3.79-6.09-10.1-9.6-14.6-8.11-10.2-19.8-17.3-32.7-19.5-7.64-1.29-16.3-0.848-23.8 1.2-4.07 1.12-10 5.08-14.3 4.11-12-2.79-18.8-18.5-33.2-18.2" fill="#feefe4"/>
 <path d="m274 128c-30.4-28.2-81.6-0.44-69.3 41.1 5.77 19.4 28.9 35.4 42.8 49.3 5.65 5.65 11.6 13.8 19.2 17 12.4 5.23 20.1-9.22 28-17.1 16.4-13.1 28.4-27 40.9-43.6 29-38.3-30.4-84-61.5-46.7" fill="#d05454"/>
 <g fill="#050505">
  <path d="m45.8 306c-3.82 7.18-12.9 11.2-15.3 19-3.58 11.6 6.75 14.1 9.52 23.1 1.14 3.7-1.82 8.09-2.04 11.9-0.653 10.9 6.78 14.9 15.8 18-2.89 7.37-6.23 14.9-5.74 23 0.378 6.23 2.23 12.5 5.06 18 25.1 49 86.1 6.86 124 21.5 16.8 6.55 27.9 22.9 35.5 38.5 4.92 10.1 8.22 22.9 18.5 29 13.7 8.01 30 1.04 44-2.59 33-8.55 66-17.1 99-25.5 13.2-3.34 32.2-5.02 41.4-16 10.3-12.3 5.45-25.6 0.96-38.9-1.68-4.97-3.62-13.1-10.3-12.9-6.57 0.191-7.22 6.97-5.93 11.9 2.73 10.3 12.1 23.7 0.753 32-8.46 6.2-22.9 6.92-32.8 9.7-27.8 7.76-56 14.6-84 21.7-11.3 2.84-28.3 11.1-40 9.08-10.7-1.85-13.7-16.2-17.8-24.5-7.99-16.3-19.1-32.6-35.2-41.6-22.6-12.6-47.8-5.85-72-3.04-15.1 1.75-30.9 3.07-44-6.42-6.7-4.85-12.1-13.4-11.8-21.9 0.499-12.6 13-24.1-2.24-33.9-2.48-1.58-5.18-2.39-7.99-3.13 1.59-3.98 5.23-7.08 6.38-11.1 2.58-9.16-9.58-15.8-14.4-21.9 3.83-2.04 6.88-4.71 9.73-8 2.07-2.39 3.92-5.01 5.02-8 8.92-24.2-29.9-18.8-27.3-37 1.06-7.59 10.3-12.7 15.6-17.3 10.1-8.83 21.5-19.9 26.4-32.7 6.42-16.5-10.3-24.5-10.3-39 3e-3 -6.14 4.56-12.3 6.49-18 2.96-8.74 3.65-17.9 4.7-27 0.653-5.69 1.45-15.6-7.29-14.6-6.58 0.716-7.1 8.46-7.7 13.6-0.902 7.82-1.37 15.5-4.05 23-3.6 10-9.54 18.9-6.58 30 2.1 7.87 11.3 15.8 10.8 24-0.374 6.19-6.64 12.7-10.6 17-13.4 14.6-46.3 33.4-28.2 57 2.29 2.99 5.17 5.48 8.36 7.48 4.87 3.05 10.5 4.95 16 6.54"/>
  <path d="m274 123c-33.3-30.9-89.4-0.482-75.9 45 6.32 21.3 31.7 38.8 46.9 54 6.19 6.19 12.8 15.2 21 18.6 13.6 5.73 23.4-6.03 32-14.6 3.35-3.37 9.09-7.75 9.17-13 0.092-5.96-6.48-8.57-11.2-5.94-6.01 3.36-16.2 20.6-23.4 18.9-8.31-1.89-18.6-17.1-24.6-23-16.4-16.4-50.9-40-30.5-66 2.38-3.02 5.29-5.69 8.49-7.81 10.2-6.76 23.3-6.05 33 1.43 4.25 3.29 8.18 10.4 14 10.8 8.76 0.619 17.3-14.2 27-16.4 19.8-4.37 40.9 17.1 34.7 36.9-2.98 9.49-13.8 14.9-16.1 24-1.79 7.25 5.8 10.4 11.3 7.06 5.05-3.02 9.39-8.34 12.8-13.1 30.8-42.7-34.7-97.9-68.8-57"/>
  <path d="m336 262c2.07-4.96 8.09-23.8-4.94-19-4.68 1.72-6.27 7.29-8.94 11-3.86 5.39-9 9.97-15.1 12.6-13.7 5.88-21.3-2.97-34-3.54-7.17-0.321-12.6 7.21-20 7.76-9.88 0.73-13.8-6.95-22-10-4.15-1.54-8.71 0.208-13-0.208-8.59-0.835-16.2-5.84-21.4-12.6-5.46-7.18-2.86-15.8-7.02-22.7-4.39-7.26-14.6-7.1-16.1-17.3-1.24-8.09 16.6-22 5.38-27.4-8.57-4.14-16.9 8.86-19 15.4-4.55 14.2 1.03 30.8 15.2 37-16.7 19.2-47.7 7.29-57.2-13-4.03-8.68-4.43-18-1.23-27 1.64-4.61 5.34-9.02 5.67-14 0.587-8.89-5.97-17.4-5.45-27 0.805-14.8 9.42-28.5 22.2-36.1 5.27-3.12 14.1-3.89 18.1-8.5 3.13-3.59 3.57-9.3 5.88-13.4 4.76-8.53 13.6-15.4 23-18 11.2-3.02 21.2 5.47 31 3.3 7.06-1.57 12-10 18-13.8 4.3-2.69 11.9-4.08 13.3-9.64 1.62-6.06-3.89-9.89-9.35-8.71-10.1 2.17-16.7 12.5-26 14.6-4.32 0.971-9.59-1.47-14-1.7-12.1-0.642-24 1.89-34 9.02-10.3 7.31-12.3 19.4-20.7 26.9-4.37 3.92-11.4 5.37-16.3 8.61-12.1 7.85-20.9 20.5-24.5 34.4-3.57 13.8 1.44 24.7 1.97 38 0.19 4.7-2.93 9.49-4.09 14-1.99 7.76-2.24 17.1-0.693 25 7.6 38.7 47.7 47.5 79.3 34 5.28 11.5 15.7 20.7 28 24 6.96 1.87 16.2 0.32 21.7 5.52 16.9 15.9 14.4 47.8 30.1 65.1 9.32 10.3 47.3 18.9 54 2.36 4.36-10.8-5.38-27.2-7.71-38 9.25 0.142 14.9 6.53 23 10.2 11 4.91 23.8 4.97 35 0.727 11.4-4.31 20.3-12.8 25.3-23.9 2.05-4.58 2.15-10.5 4.89-14.7 5.49-8.32 17.6-12.8 24-21.3 10.3-13.7 14.9-32 12.3-49-0.989-6.66-5.76-14.2-5.72-20.7 0.0311-5.27 6.63-11.4 8.73-16.3 4.9-11.3 6.14-25 3.06-37-3.46-13.5-11.8-25.6-23.6-33.3-5.03-3.27-12.1-4.43-16.5-8.41-4.4-3.99-6.4-10.7-10.1-15.3-8.54-10.8-20.8-18.2-34.4-20.5-8.03-1.36-17.2-0.892-25 1.26-4.28 1.18-10.6 5.35-15 4.32-12.7-2.93-19.8-19.4-35-19.2-6.13 0.116-9.64 6.83-5.41 11.6 4.59 5.21 13.8 6.79 19.4 11.2 5.56 4.32 9.71 12.8 16.1 15.7 6.06 2.71 11.9-3.71 16.9-6.21 7.53-3.78 15.7-4.9 24-3.97 12.1 1.36 23.1 9.56 29.5 19.8 2.77 4.44 3.75 10.8 7.89 14.3 3.98 3.29 10.1 3.53 14.7 5.81 9.96 4.99 18 14.3 21.4 24.9 3.5 10.8 1.83 23.4-4.2 33-3 4.77-9.28 9.27-10.2 15-0.916 5.49 4.04 11.1 5.9 16 2.79 7.31 3.6 15.2 2.96 23-2.12 25.9-27.5 46.2-52.9 44.9-10-0.524-17.9-5.35-27-8.92m41 23c-3.81 17.5-23.3 27.3-40 21.4-6.71-2.36-10.8-8.13-17-10.9-9.22-4.12-18.7 1.86-22-11.5 9.37-0.96 20.6-10.6 29-9.86 5.97 0.544 12.3 6.08 18 8.13 10.6 3.82 21 3.76 32 2.73m-77 56c-7.58-0.27-21.3-0.6-27.6-5.17-4.49-3.27-6.03-9.94-8.04-14.8-4.63-11.3-10.9-23-13.4-35 8.06-0.495 18.5-7.72 25.9-5.31 6.61 2.14 7.31 9.51 9.1 15.3 4.64 15 9.08 30.1 14 45z"/>
  <path d="m233 0.908c-46.8 5.27-91 16.2-127 48.8-12.6 11.4-23.1 25.5-30.7 40.8-2.54 5.09-7.1 16.7 2.76 17.4 8.76 0.64 14.3-17.5 18.5-23.4 13.8-19.8 32.3-35.2 53.5-46.7 75.7-40.8 189-26.3 257 24.8 45.1 34.1 61 80.4 61 135 0 22.9-2.08 46.9-11.8 68-13.6 29.4-37.4 47.2-57.9 71-9.54 11-10.5 27.1-8.94 41 0.574 5.24 0.899 13.9 7.7 14.6 5.4 0.59 7.79-3.91 7.89-8.61 0.24-11.8-3.85-24.5 3.77-35 10.9-15 27.3-26.4 39-41 23.4-29 33.3-62.2 35.2-99 1.74-34.5-1.11-69.9-17.3-101-32.9-63.3-103-93.9-171-104-20-2.89-41.8-5.27-62-2.99"/>
 </g>
</svg>
